<?xml version="1.0" encoding="UTF-8" standalone="no"?>
<!DOCTYPE svg PUBLIC "-//W3C//DTD SVG 1.1//EN" "http://www.w3.org/Graphics/SVG/1.1/DTD/svg11.dtd">
<svg width="100%" height="100%" viewBox="0 0 1078 734" version="1.1" xmlns="http://www.w3.org/2000/svg" xmlns:xlink="http://www.w3.org/1999/xlink" xml:space="preserve" xmlns:serif="http://www.serif.com/" style="fill-rule:evenodd;clip-rule:evenodd;stroke-linecap:round;stroke-linejoin:round;stroke-miterlimit:1.5;">
    <g transform="matrix(1,0,0,1,-337.271,-343.143)">
        <g transform="matrix(1,0,0,1,-457.596,-881.65)">
            <g transform="matrix(1,0,0,1,31.1475,90.7841)">
                <g transform="matrix(1,0,0,1,460.01,266.594)">
                    <path d="M842.322,1540.68C790.75,1570.57 730.885,1587.67 667.057,1587.67C473.64,1587.67 316.609,1430.63 316.609,1237.22C316.609,1043.8 473.64,886.769 667.057,886.769C730.885,886.769 790.75,903.87 842.322,933.75C737.629,994.372 667.138,1107.63 667.138,1237.22C667.138,1366.81 737.629,1480.06 842.322,1540.68Z" style="fill:none;stroke:white;stroke-width:25.8px;"/>
                </g>
                <g transform="matrix(1,0,0,1,810.539,260.14)">
                    <path d="M491.793,933.75C543.364,903.87 603.229,886.769 667.057,886.769C860.475,886.769 1017.5,1043.8 1017.5,1237.22C1017.5,1430.63 860.475,1587.67 667.057,1587.67C603.229,1587.67 543.364,1570.57 491.793,1540.68C596.486,1480.06 666.977,1366.81 666.977,1237.22C666.977,1107.63 596.486,994.372 491.793,933.75Z" style="fill:none;"/>
                    <clipPath id="_clip1">
                        <path d="M491.793,933.75C543.364,903.87 603.229,886.769 667.057,886.769C860.475,886.769 1017.5,1043.8 1017.5,1237.22C1017.5,1430.63 860.475,1587.67 667.057,1587.67C603.229,1587.67 543.364,1570.57 491.793,1540.68C596.486,1480.06 666.977,1366.81 666.977,1237.22C666.977,1107.63 596.486,994.372 491.793,933.75Z"/>
                    </clipPath>
                    <g clip-path="url(#_clip1)">
                        <g transform="matrix(1,0,0,1.81505,-496.964,-1043.08)">
                            <g transform="matrix(2.76957,0,0,0.400812,-301.428,673.917)">
                                <rect x="465.864" y="1009.01" width="189.777" height="35.623" style="fill:white;"/>
                            </g>
                            <g transform="matrix(2.76957,0,0,0.400812,-301.428,702.505)">
                                <rect x="465.864" y="1009.01" width="189.777" height="35.623" style="fill:white;"/>
                            </g>
                            <g transform="matrix(2.76957,0,0,0.400812,-301.428,731.192)">
                                <rect x="465.864" y="1009.01" width="189.777" height="35.623" style="fill:white;"/>
                            </g>
                            <g transform="matrix(2.76957,0,0,0.400812,-301.428,759.623)">
                                <rect x="465.864" y="1009.01" width="189.777" height="35.623" style="fill:white;"/>
                            </g>
                            <g transform="matrix(2.76957,0,0,0.400812,-301.428,788.212)">
                                <rect x="465.864" y="1009.01" width="189.777" height="35.623" style="fill:white;"/>
                            </g>
                            <g transform="matrix(2.76957,0,0,0.400812,-301.428,816.899)">
                                <rect x="465.864" y="1009.01" width="189.777" height="35.623" style="fill:white;"/>
                            </g>
                            <g transform="matrix(2.76957,0,0,0.400812,-301.428,845.622)">
                                <rect x="465.864" y="1009.01" width="189.777" height="35.623" style="fill:white;"/>
                            </g>
                            <g transform="matrix(2.76957,0,0,0.400812,-301.428,874.211)">
                                <rect x="465.864" y="1009.01" width="189.777" height="35.623" style="fill:white;"/>
                            </g>
                            <g transform="matrix(2.76957,0,0,0.400812,-301.428,902.897)">
                                <rect x="465.864" y="1009.01" width="189.777" height="35.623" style="fill:white;"/>
                            </g>
                            <g transform="matrix(2.76957,0,0,0.400812,-301.428,931.329)">
                                <rect x="465.864" y="1009.01" width="189.777" height="35.623" style="fill:white;"/>
                            </g>
                            <g transform="matrix(2.76957,0,0,0.400812,-301.428,959.917)">
                                <rect x="465.864" y="1009.01" width="189.777" height="35.623" style="fill:white;"/>
                            </g>
                            <g transform="matrix(2.76957,0,0,0.400812,-301.428,988.604)">
                                <rect x="465.864" y="1009.01" width="189.777" height="35.623" style="fill:white;"/>
                            </g>
                            <g transform="matrix(2.76957,0,0,0.400812,-301.428,1017.15)">
                                <rect x="465.864" y="1009.01" width="189.777" height="35.623" style="fill:white;"/>
                            </g>
                        </g>
                    </g>
                    <path d="M491.793,933.75C543.364,903.87 603.229,886.769 667.057,886.769C860.475,886.769 1017.5,1043.8 1017.5,1237.22C1017.5,1430.63 860.475,1587.67 667.057,1587.67C603.229,1587.67 543.364,1570.57 491.793,1540.68C596.486,1480.06 666.977,1366.81 666.977,1237.22C666.977,1107.63 596.486,994.372 491.793,933.75Z" style="fill:none;stroke:white;stroke-width:25.8px;"/>
                </g>
                <g transform="matrix(1,0,0,1,810.539,266.594)">
                    <path d="M491.793,933.75C596.486,994.372 666.977,1107.63 666.977,1237.22C666.977,1366.81 596.486,1480.06 491.793,1540.68C387.1,1480.06 316.609,1366.81 316.609,1237.22C316.609,1107.63 387.1,994.372 491.793,933.75Z" style="fill:white;"/>
                </g>
            </g>
        </g>
    </g>
</svg>
